# xmcd
#
# Track frame offsets: 
#        150
#        14827
#        29501
#        47301
#        60626
#        75433
#        88606
#        104371
#        122362
#        138674
#        154221
#        171087
#        185207
#
# Disc length: 2709 seconds
#
# Revision: 0
# Processed by: cddbd v1.5.2PL0 Copyright (c) Steve Scherf et al.
# Submitted via: ExactAudioCopy v0.99pb4
#
DISCID=a90a930d
DTITLE=Eli Barsi - Eli Barsi
DYEAR=2000
DGENRE=Country
TTITLE0=Second Hand Saddle
TTITLE1=I Wanna Go
TTITLE2=Sweet Sixteen
TTITLE3=Last Great Romance
TTITLE4=I Will
TTITLE5=Take Me Away
TTITLE6=Speechless
TTITLE7=Long Lonesome Sound
TTITLE8=Another Day
TTITLE9=Small Town
TTITLE10=Coincidence
TTITLE11=Waiting On The Wind
TTITLE12=Open That Door
EXTD=
EXTT0=
EXTT1=
EXTT2=
EXTT3=
EXTT4=
EXTT5=
EXTT6=
EXTT7=
EXTT8=
EXTT9=
EXTT10=
EXTT11=
EXTT12=
PLAYORDER=
